<svg xmlns="http://www.w3.org/2000/svg" xml:space="preserve" viewBox="0 0 72 72">
    <switch>
        <foreignObject width="1" height="1" x="0" y="0" requiredExtensions="http://ns.adobe.com/AdobeIllustrator/10.0/"/>
        <g>
            <g fill-rule="evenodd" clip-rule="evenodd">
                <path fill="#212020" d="M27.4 53.2v-4.7c0-.3-.1-.3-.4-.2-1.2.2-2.3.3-3.5.2-2.4-.2-4.3-1.2-5.7-3.2-.4-.6-.8-1.3-1.2-1.9-.7-1.3-1.7-2.3-3-2.9-.4-.2-.7-.4-1-.7-.3-.4-.3-.7.2-.9.8-.3 1.5-.2 2.3.1 1.5.5 2.5 1.5 3.3 2.7.4.7.9 1.4 1.5 1.9 1.9 1.7 4 1.8 6.3 1.1.1 0 .1 0 .2-.1.7-.2 1.1-.5 1.2-1.2.3-1.2.7-1.7 2.2-3.2-2.1-.2-4.1-.6-6-1.3-2.7-.9-5.2-2.3-6.9-4.7-.3-.4-.6-.8-.8-1.2-.1-.2-.2-.3-.5-.2-5.1.2-10.1.8-15.1 2.1H.3c-.1 0-.2.1-.3 0-.1-.2.1-.2.2-.2.9-.2 1.9-.5 2.8-.7q5.85-1.2 12-1.5c.7 0 .6 0 .4-.6s-.5-.7-1.1-.7c-4.7-.1-9.4.1-14 1-.2 0-.4.2-.5 0s.3-.2.4-.2c4.7-.9 9.3-1.1 14.1-1h.6c-.3-1-.6-2.1-.8-3.2-.4-3.1-.6-6.1.6-9.1.6-1.4 1.3-2.7 2.3-3.8.2-.2.2-.4.2-.7-.5-3-.2-5.8.8-8.5.1-.3.3-.3.5-.3 1.1-.1 2.1.2 3.1.5 1.9.6 3.7 1.6 5.3 2.8.3.2.5.3.9.2 5.1-1.3 10.2-1.4 15.3-.2.3.1.5 0 .8-.2 1.9-1.2 3.9-2.3 6.1-2.9.7-.2 1.4-.3 2.1-.2.3 0 .5.1.6.4.9 2.5 1.2 5.1.5 7.7-.1.2 0 .4.1.5 2.6 2.7 3.7 5.9 3.7 9.6 0 2.4-.2 4.8-.8 7.2 1.6 0 3.2-.1 4.7 0 3.5.1 7 .4 10.4 1 .2 0 .5 0 .5.2-.1.3-.4.1-.5.1-4.9-.9-9.9-1.1-14.8-.9-.2 0-.3.1-.4.3l-.3.9v.1c1 .1 2 .1 2.9.2 4.3.3 8.5.9 12.6 2h.1c.1.1.3 0 .2.2s-.2.1-.3 0l-1.2-.3c-4.7-1.2-9.5-1.7-14.3-1.9-.2 0-.4 0-.5.2-1.4 3-3.9 4.8-6.9 5.9-2.1.8-4.4 1.2-6.6 1.4 0 .1 0 .1.1.2 1.6 1.2 2.4 2.9 2.5 4.9.1 2.4 0 4.9.1 7.3v2c0 1.6.6 2.7 2.1 3.4.5.2.6.6.4 1-.1 0-.1.1-.2.1 0 0-.1 0-.1.1-1.2.1-2.3 0-3.3-.4-1.5-.7-2.3-1.8-2.3-3.4v-7.3c0-.8-.2-1.5-.6-2.2-.1-.2-.2-.4-.5-.5v12.8c0 1 .3 1.9 1.3 2.4.3.7.3 1-.4 1.3-.1 0-.3 0-.4.1-1.1-.2-2-.6-2.9-1.2-1-.9-1.3-2-1.3-3.2V45c0-.3-.1-.6-.5-.6-.3 0-.4.2-.4.5v12.6c0 1.3-.3 2.4-1.3 3.3-.8.6-1.8 1-2.8 1.2h-.1c-.4 0-.8 0-1-.5-.1-.5.1-.8.5-1.1.7-.4 1-1.1 1-1.8V45.3c-.3.1-.4.4-.5.6-.2.4-.4.9-.4 1.4-.2 1.9-.1 3.8-.1 5.7v2.6q0 1.35-.9 2.4c-1.3 1.3-3 1.6-4.7 1.4-.5 0-.6-.5-.3-.9.2-.2.4-.3.6-.4 1-.5 1.7-1.2 1.9-2.3s.1-1.8.1-2.6m9.1-14.5h1.2c2.5-.1 5-.1 7.4-.7s4.5-1.6 5.7-3.9c1.1-2.1 1.4-4.4 1-6.7-.5-2.5-2.8-5.6-6.6-5.7-2.1-.1-4.2.1-6.4.2q-2.7.15-5.4 0c-2-.1-4.1-.3-6.1-.3-2.7 0-4.7 1.1-6.2 3.4-1.1 1.7-1.3 3.6-1.1 5.6.4 2.7 1.7 4.8 4.1 6.1 1.3.7 2.8 1.1 4.2 1.4 2.7.6 5.4.6 8.2.6M19.8 44c0-.3-.4-.7-.7-.7-.2 0-.4.2-.3.4.1.3.3.6.6.6s.4-.1.4-.3m3.1 2.2c.3 0 .5-.1.5-.4s-.3-.4-.6-.4c-.2 0-.5 0-.5.3 0 .4.3.5.6.5m-2-.6c.3 0 .4-.1.5-.3 0-.3-.3-.6-.7-.6-.2 0-.5.1-.4.3 0 .4.3.6.6.6m4.1-.2c-.2.1-.5.1-.5.4s.3.4.5.4c.3 0 .6 0 .6-.4 0-.3-.3-.3-.6-.4m-6.9-2.7c.3 0 .3-.2.3-.3 0-.3-.3-.7-.6-.6-.3 0-.3.2-.3.4.1.2.3.4.6.5m-1.2-1.5q.3 0 .3-.3c-.1-.3-.3-.4-.5-.5q-.3 0-.3.3c0 .3.2.4.5.5m10.3 4c0-.2 0-.3-.2-.3s-.4.1-.5.4c0 .3.2.4.4.4.5 0 .2-.4.3-.5m-11.6-5c.2 0 .3-.1.3-.2 0-.2-.2-.3-.4-.4-.2 0-.3 0-.3.2s.2.3.4.4"/>
                <path fill="#95d2ed" d="M31.9 52.6v5.7c0 .7-.3 1.4-1 1.8-.4.2-.6.6-.5 1.1s.6.5 1 .5h.1c.5 1.5.4 3.1.4 4.7-1.5-.1-3-.2-4.5-.5s-3-.6-4.5-1.1c-2-.6-3.9-1.4-5.4-2.8-1.9-1.8-1.5-3.7.3-5.2 1.8-1.4 3.9-2.2 6.1-2.8 1.2-.3 2.3-.6 3.5-.8 0 .7.1 1.5 0 2.2-.1 1.2-.8 1.9-1.9 2.3-.2.1-.5.2-.6.4-.3.4-.2.9.3.9 1.8.1 3.4-.1 4.7-1.4.7-.7.9-1.5.9-2.4v-2.6c.4.2.7.1 1.1 0m15.2 6.3c.2-.5 0-.8-.4-1-1.5-.7-2.1-1.8-2.1-3.4v-1.4c3 .5 6 1.2 8.7 2.7.9.5 1.8 1.1 2.4 1.9 1 1.3.9 2.7-.2 3.9-1 1.1-2.4 1.8-3.8 2.4-2.2.9-4.6 1.5-7 1.9h-.1v-3.6c.1-1.3.7-2.3 1.9-2.9.1-.1.3-.1.3-.3 0 0 .1 0 .1-.1.1.1.2 0 .2-.1"/>
                <path fill="#7cb9e5" d="M46.8 59.1c0 .2-.2.2-.3.3-1.2.6-1.8 1.6-1.9 2.9-.1 1.2 0 2.4 0 3.6-1.1.2-2.3.4-3.4.4v-4.1c0-.2.1-.4-.1-.5.7-.3.8-.6.4-1.3.4-.4.7-.8 1.2-1.2.3-.2.7-.2.8-.6 1.1.5 2.2.7 3.3.5"/>
                <path fill="#95d2ed" d="M36.4 52.4v4.9c0 1.3.3 2.4 1.3 3.2 0 .1-.1.2-.2.3-.4.4-.6 1-.7 1.5-.4 1.4-.2 2.8-.3 4.2h-1.1c-.1-.7-.1-1.5-.1-2.2 0-1.4-.3-2.7-1.2-3.8.9-.9 1.3-2 1.3-3.3v-4.8z"/>
                <path fill="#7cb9e5" d="M36.6 66.6c0-1.4-.2-2.8.3-4.2.2-.5.4-1.1.7-1.5.1-.1.2-.2.2-.3.9.6 1.8 1 2.9 1.2-.1.3-.2.7-.3 1-.3 1.2-.2 2.5-.2 3.7-1.3.1-2.4.2-3.6.1m-2.3-6c.9 1.1 1.2 2.4 1.2 3.8 0 .7 0 1.5.1 2.2-1.2 0-2.4 0-3.6-.2 0-1.6.1-3.1-.4-4.7.9-.1 1.8-.5 2.7-1.1"/>
                <path fill="#95d2ed" d="M40.1 66.5c0-1.2-.1-2.5.2-3.7.1-.3.2-.7.3-1 .1 0 .3 0 .4-.1.2.1.1.3.1.5v4.1c-.3.2-.6.1-1 .2M13.3 40.4c.2.8.4 1.4.6 2.1.1.3 0 .5-.2.7q-.3.3-.6 0c-.3-.1-.4-.4-.3-.7 0-.6.3-1.3.5-2.1"/>
                <path fill="#f3c9b0" d="M36.5 38.7c-2.7 0-5.5 0-8.2-.6-1.5-.3-2.9-.7-4.2-1.4-2.4-1.3-3.7-3.4-4.1-6.1-.3-2-.1-3.9 1.1-5.6 1.5-2.2 3.5-3.3 6.2-3.4 2 0 4.1.2 6.1.3q2.7.15 5.4 0c2.1-.2 4.2-.3 6.4-.2 3.9.2 6.1 3.2 6.6 5.7.5 2.3.1 4.6-1 6.7-1.2 2.3-3.3 3.3-5.7 3.9s-4.9.6-7.4.7zm11.9-8.9c0-1.7-.3-2.9-1-3.9-1.3-1.8-3.3-1.9-4.6-.1-.9 1.2-1.1 2.5-1.1 3.9.1 1.2.4 2.2 1.1 3.2 1.1 1.5 2.8 1.6 4.1.4 1.1-1.1 1.4-2.5 1.5-3.5m-17.9-.6c.1-1.4-.4-2.7-1.2-3.6-.6-.8-1.4-1.2-2.5-1-.9.1-1.5.7-2 1.4-1.4 2-1.3 5.1.2 7 1.1 1.4 2.9 1.5 4.1.2 1-1.1 1.4-2.4 1.4-4m5.3 7.9c.8 0 1.6-.5 1.9-1.2.1-.2.1-.3-.1-.5-.2-.1-.3 0-.4.2-.5 1.1-2.2 1.4-2.8 0-.1-.2-.2-.3-.4-.2s-.2.3-.1.5c.5.7 1.1 1.1 1.9 1.2m.9-3.5c0-.4-.4-.8-.8-.8-.5 0-.8.4-.8.9s.4.8.8.8c.4-.1.8-.5.8-.9"/>
                <path fill="#95d2ed" d="M43.5 58.7c-.2.4-.6.4-.8.6-.5.3-.8.8-1.2 1.2-1-.5-1.3-1.4-1.3-2.4v-5.3c.3 0 .7 0 1 .1v2.5c0 1.5.8 2.6 2.3 3.3"/>
                <path fill="#fefefe" d="M36.4 52.4h-.9v-7.8c0-.3.1-.5.4-.5.4 0 .5.2.5.6zm-4.5.2c-.3.1-.7.1-1 .1 0-1.9-.1-3.8.1-5.7 0-.5.2-.9.4-1.4.1-.2.2-.4.5-.6zm9.3.1c-.3-.1-.7-.1-1-.1v-7.5c.3.1.4.3.5.5.4.7.5 1.4.6 2.2-.1 1.7-.1 3.3-.1 4.9"/>
                <path fill="#95d2ed" d="M19.8 44c0 .2-.1.3-.4.3-.4 0-.6-.3-.6-.6 0-.2.1-.4.3-.4.3 0 .7.3.7.7m3.1 2.2c-.3 0-.6-.1-.6-.5 0-.3.3-.3.5-.3.3 0 .6.1.6.4 0 .4-.3.4-.5.4m-2-.6c-.3-.1-.6-.2-.6-.6 0-.3.2-.3.4-.3.3 0 .7.3.7.6s-.2.3-.5.3m4.1-.2c.3 0 .6.1.6.4s-.3.4-.6.4c-.2 0-.5-.1-.5-.4s.3-.3.5-.4m-6.9-2.7c-.3 0-.5-.3-.5-.6 0-.2 0-.4.3-.4s.6.3.6.6c-.1.2-.2.4-.4.4m-1.2-1.5c-.3 0-.5-.2-.5-.5q0-.3.3-.3c.3 0 .5.2.5.5q0 .3-.3.3m10.3 4c-.2.1.2.5-.3.5-.2 0-.4-.1-.4-.4s.2-.4.5-.4.3.1.2.3m-11.6-5c-.2 0-.4-.1-.4-.4 0-.2.1-.2.3-.2s.4.1.4.4c.1.1-.1.2-.3.2"/>
                <path fill="#7cb9e5" d="M47.1 58.9c0 .1-.1.1-.2.1.1 0 .2 0 .2-.1"/>
                <path fill="#fefefe" d="M48.4 29.8c0 1-.3 2.3-1.4 3.4-1.3 1.3-3 1.1-4.1-.4-.7-1-1-2-1.1-3.2-.1-1.4.2-2.8 1.1-3.9 1.3-1.8 3.4-1.7 4.6.1.6 1.1.9 2.3.9 4m-5.9-.5c0 1 .2 1.8.8 2.5.8 1 2 1 2.8.1 1.1-1.3 1.1-3.8 0-5.1-.8-.8-1.9-.9-2.6 0-.8.7-1 1.6-1 2.5m-12-.1c0 1.6-.3 2.9-1.4 4-1.2 1.3-3 1.2-4.1-.2-1.5-1.9-1.6-5-.2-7 .5-.7 1.1-1.3 2-1.4 1.1-.2 1.9.3 2.5 1 .7.9 1.2 2.2 1.2 3.6m-5.3.2c0 .9.2 1.8.8 2.5.8.9 1.9.9 2.7.1 1.2-1.3 1.2-3.9 0-5.2-.8-.8-1.8-.8-2.6 0-.6.7-.9 1.6-.9 2.6"/>
                <path fill="#ac5e53" d="M35.8 37.1c-.8-.1-1.4-.5-1.8-1.3-.1-.2-.1-.4.1-.5s.3.1.4.2c.6 1.3 2.3 1.1 2.8 0 .1-.2.2-.3.4-.2s.2.3.1.5c-.4.7-1.2 1.3-2 1.3m.9-3.5c0 .5-.4.9-.8.9s-.8-.4-.8-.8c0-.5.4-.9.8-.9.4-.1.8.3.8.8m5.8-4.3c0-.9.2-1.8.9-2.5.8-.8 1.9-.8 2.6 0 1.1 1.3 1.2 3.8 0 5.1-.8 1-2 .9-2.8-.1-.5-.7-.7-1.6-.7-2.5m1.5-.8c.3 0 .5-.2.5-.5 0-.4-.2-.6-.5-.6s-.6.2-.6.6c.1.3.3.4.6.5m-18.8.9c0-1 .2-1.9.9-2.6.8-.8 1.8-.8 2.6 0 1.2 1.3 1.2 3.9 0 5.2-.8.8-1.9.8-2.7-.1-.5-.7-.8-1.6-.8-2.5m1.3-.8c.3 0 .6-.3.7-.6 0-.3-.3-.6-.6-.6s-.6.3-.7.6c0 .2.3.5.6.6"/>
                <path fill="#fefefe" d="M44 28.5c-.3 0-.6-.2-.6-.5q0-.6.6-.6c.4 0 .6.2.5.6 0 .3-.2.4-.5.5m-17.5.1c-.3 0-.6-.3-.6-.7 0-.3.3-.6.7-.6.3 0 .6.3.6.6-.1.4-.4.7-.7.7"/>
            </g>
        </g>
    </switch>
</svg>
