<svg xmlns="http://www.w3.org/2000/svg" xml:space="preserve" viewBox="0 0 72 72">
    <switch>
        <foreignObject width="1" height="1" x="0" y="0" requiredExtensions="http://ns.adobe.com/AdobeIllustrator/10.0/"/>
        <g>
            <path fill-rule="evenodd" d="M37.5 44.4c-2.3-2.8-3-5.6-1.8-8.9-4.5.4-8.6-.3-12-3.2s-4.8-6.8-4.8-11.4H5.1c.5-.6.8-.9 1.1-1.2L24.6 1.3c.5-.5 1.3-1 2-1C39.8.2 53 .3 66.2.3c.2 0 .3 0 .8.1-1 1-1.7 1.8-2.6 2.6-.8.7-1.1 1.5-1.1 2.6.1 1.7-.5 3.5 1.2 4.9.3.3.4 1.1.4 1.6v19.5c0 1.9-1 3.1-2.6 3.1-1.5 0-2.4-1.2-2.4-3V12.2c0-.6.2-1.2.4-1.8.3-1.3.7-2.4 1.1-3.5l-.6-.3-3.3 3.3c-1.5 1.5-3.1 3-4.5 4.5-.4.4-.7 1.3-.5 1.8 1.5 5.9 0 10.9-4.7 14.8-1.2 1-2.5 2.1-3.5 3.3-1.4 1.7-1.3 3.6.3 5.1 2.2 2 4.6 3.9 6.8 5.9 7.1 6.2 5.2 15.7-1 20.8-4 3.3-8.7 4.8-13.8 5.3-5.1.4-10.1.2-14.8-2-4.9-2.2-7.8-6.3-7.3-11 .4-4.1 2.4-7.2 5.8-9.5 4.3-2.9 9.3-3.7 14.3-4.3.9 0 1.6-.1 2.9-.2M22.4 57.2c0 3.9 1.9 6.7 5.2 8.4 5.1 2.7 10.6 3.1 16 1.3 6.7-2.2 8.5-9.3 3.8-14.2-1.9-2-4.2-3.5-6.4-5.2-.3-.3-.9-.4-1.3-.4-4.2 0-8.3.4-12.1 2.4-3.1 1.6-5.2 4-5.2 7.7m22.8-34c-.3-4.1-1.5-8.7-5.2-12.3C37.8 8.7 35.2 8 32.2 9s-4.8 3.1-5.2 6.2c-.8 5.6.6 10.6 4.3 14.9 1.3 1.5 2.9 2.5 4.9 2.8 5.1.8 9-2.9 9-9.7" clip-rule="evenodd"/>
        </g>
    </switch>
</svg>
